# xmcd
#
# Track frame offsets: 
#        300
#        15920
#        33826
#        52988
#        73185
#
# Disc length: 1203 seconds
#
# Revision: 5
# Processed by: cddbd v1.5.2PL0 Copyright (c) Steve Scherf et al.
# Submitted via: ExactAudioCopyFreeDBPlugin 1.0
#
DISCID=3504af05
DTITLE=Enrique Iglesias - Przeboje, przeboje, przeboje...
DYEAR=2002
DGENRE=Latin/Pop
TTITLE0=Bailamos (Groove Brothers Radio Edit)
TTITLE1=Rhythm Divine (Fernando's Pop Mix-English Radio Edit)
TTITLE2=Ruleta Rusa
TTITLE3=Cosas Del Amor
TTITLE4=Dicen Por Ahi
EXTD=
EXTT0=
EXTT1=
EXTT2=
EXTT3=
EXTT4=
PLAYORDER=
